<?xml version="1.0" standalone="no"?>
<!DOCTYPE svg PUBLIC "-//W3C//DTD SVG 1.1//EN" "http://www.w3.org/Graphics/SVG/1.1/DTD/svg11.dtd" >
<!--
2013-9-30: Created.
-->
<svg>
<metadata>
Created by iconfont
</metadata>
<defs>

<font id="iconfont" horiz-adv-x="1024" >
  <font-face
    font-family="iconfont"
    font-weight="500"
    font-stretch="normal"
    units-per-em="1024"
    ascent="896"
    descent="-128"
  />
    <missing-glyph />
    
    <glyph glyph-name="x" unicode="x" horiz-adv-x="1001"
d="M281 543q-27 -1 -53 -1h-83q-18 0 -36.5 -6t-32.5 -18.5t-23 -32t-9 -45.5v-76h912v41q0 16 -0.5 30t-0.5 18q0 13 -5 29t-17 29.5t-31.5 22.5t-49.5 9h-133v-97h-438v97zM955 310v-52q0 -23 0.5 -52t0.5 -58t-10.5 -47.5t-26 -30t-33 -16t-31.5 -4.5q-14 -1 -29.5 -0.5
t-29.5 0.5h-32l-45 128h-439l-44 -128h-29h-34q-20 0 -45 1q-25 0 -41 9.5t-25.5 23t-13.5 29.5t-4 30v167h911zM163 247q-12 0 -21 -8.5t-9 -21.5t9 -21.5t21 -8.5q13 0 22 8.5t9 21.5t-9 21.5t-22 8.5zM316 123q-8 -26 -14 -48q-5 -19 -10.5 -37t-7.5 -25t-3 -15t1 -14.5
t9.5 -10.5t21.5 -4h37h67h81h80h64h36q23 0 34 12t2 38q-5 13 -9.5 30.5t-9.5 34.5q-5 19 -11 39h-368zM336 498v228q0 11 2.5 23t10 21.5t20.5 15.5t34 6h188q31 0 51.5 -14.5t20.5 -52.5v-227h-327z" />
    

    
    <glyph glyph-name="fma" unicode="&#58899;" d="M511.999996 500.34756l111.303859 0c24.589948 0 44.521339 19.932413 44.521339 44.521339 0 24.589948-19.932413 44.521339-44.521339 44.521339L489.738816 589.390239c-73.765759 0-133.56504-59.799281-133.56504-133.56504l0-400.695119c0-24.589948 19.932413-44.521339 44.521339-44.521339 24.589948 0 44.521339 19.932413 44.521339 44.521339L445.216455 166.43496c0 36.884411 29.898108 66.78252 66.78252 66.78252l111.303859 0c24.589948 0 44.521339 19.932413 44.521339 44.521339 0 24.589948-19.932413 44.521339-44.521339 44.521339L511.999996 322.260159c-36.884411 0-66.78252 29.89913-66.78252 66.78252l0 44.521339C445.217476 470.449451 475.115585 500.34756 511.999996 500.34756zM511.999996 812c-282.768572 0-512-229.230407-512-512s229.231428-512 512-512 512 229.230407 512 512S794.768568 812 511.999996 812zM511.999996-122.9563c-233.592761 0-422.9563 189.363539-422.9563 422.9563S278.407235 722.9563 511.999996 722.9563s422.9563-189.36456 422.9563-422.9563S745.591735-122.9563 511.999996-122.9563z"  horiz-adv-x="1024" />

    
    <glyph glyph-name="iconfont7tian" unicode="&#58889;" d="M953.235306 584.00008c0 0-0.069585-0.190335-0.195451-0.542352l-0.076748 0.542352-73.084529-151.585417 77.526701 8.919137c5.582135-64.582901-3.53757-130.080637-27.467585-192.110389-20.960381-54.332443-51.928696-102.927207-92.044346-144.4366-38.752606-40.099277-84.373643-71.942519-135.594211-94.64559-51.220568-22.702048-105.452727-35.117822-161.189146-36.899398-57.697073-1.845021-114.499777 7.847735-168.83222 28.807093-54.332443 20.960381-102.928231 51.928696-144.437623 92.044346-40.098253 38.752606-71.942519 84.373643-94.64559 135.594211-22.702048 51.220568-35.117822 105.452727-36.899398 161.189146-1.843998 57.69605 7.847735 114.499777 28.808116 168.83222 20.960381 54.332443 51.928696 102.928231 92.043323 144.437623 38.752606 40.098253 84.374666 71.942519 135.594211 94.64559 51.220568 22.702048 105.45375 35.117822 161.189146 36.899398 57.69605 1.843998 114.499777-7.847735 168.83222-28.808116 49.389874-19.053961 94.204545-46.495964 133.199675-81.566714l20.528546 22.825868c-41.784662 37.578874-89.788979 66.979484-142.679583 87.383186-58.186214 22.447245-119.037117 32.82664-180.862207 30.849612-59.706847-1.909489-117.794823-15.204283-172.648129-39.517015-54.853305-24.312732-103.715153-58.421574-145.229662-101.376898-42.987047-44.479027-76.163657-96.535637-98.610902-154.721851C74.014714 512.572284 63.635319 451.721381 65.612347 389.89629c1.908466-59.70787 15.204283-117.794823 39.517015-172.648129 24.312732-54.853305 58.421574-103.716176 101.376898-145.230686 44.479027-42.987047 96.535637-76.163657 154.721851-98.610902 58.186214-22.447245 119.037117-32.82664 180.862207-30.849612 59.70787 1.908466 117.794823 15.204283 172.648129 39.518039 54.853305 24.312732 103.716176 58.420551 145.229662 101.376898 42.987047 44.479027 76.163657 96.535637 98.610902 154.721851C1001.871003 350.392578 999.97277 473.209788 953.235306 584.00008zM521.193383 200.47515c10.339486 119.020744 57.552787 232.886071 141.671627 341.565283l0 60.162218L367.876532 602.202651l0-67.925019 205.715245 0c-77.628008-104.798834-124.204813-216.086453-139.731438-333.802482L521.193383 200.47515z"  horiz-adv-x="1024" />

    
    <glyph glyph-name="iconfont15tianwuliyoutuihuo1" unicode="&#58890;" d="M188.783109 701.436746C256.76441 769.42828 344.458681 813.538917 441.342242 827.453834c118.413923 17.022699 236.411361-13.171997 332.180542-84.883249 95.788623-71.765487 157.907403-176.526459 174.928055-294.939359 35.116799-244.617254-135.326105-472.080825-379.789862-507.219113-102.507652-14.703887-207.618595 6.782473-295.991318 60.432371-15.09786 9.188266-19.911492 28.881794-10.743692 43.979654 9.254781 14.96483 28.860305 19.909445 43.97863 10.721179 75.68168-45.991474 165.783791-64.370053 253.67556-51.768037 209.499431 30.062689 355.569228 225.055732 325.505515 434.753685-14.57188 101.522208-67.826781 191.273325-149.941987 252.756631C653.052015 752.799554 551.92378 778.618593 450.422038 764.00271c-209.717396-30.052456-355.744213-225.089501-325.616032-434.697403 7.898901-54.875818 26.934442-106.161878 56.71163-152.37234 9.540284-14.921851 5.186116-34.788318-9.583263-44.240597-14.855336-9.582239-34.678824-5.294586-44.240597 9.53926-34.745339 54.087872-56.997132 113.907283-66.251913 177.970344-17.000186 118.414947 13.149485 236.479923 84.959997 332.268546C159.442874 669.929148 173.620781 686.295907 188.783109 701.436746L188.783109 701.436746 188.783109 701.436746zM461.471698 505.700783M332.710103 198.33644 332.710103 539.669432l-53.54245 0c-13.385868 0-20.078291 7.42511-20.078291 22.309098 0 11.886725 6.693446 18.579147 20.078291 20.078291l89.237417 0c10.387581 0 15.616676-4.461615 15.616676-13.385868l0-370.335537c-1.499144-14.883989-10.422374-22.309098-26.771737-22.309098C340.866876 176.028365 332.710103 183.452451 332.710103 198.33644zM569.189002 539.669432l-15.615653-111.546515c14.848173 7.42511 32.695656 11.886725 53.541427 13.385868 62.46568-7.459902 97.394191-49.079812 104.85307-124.932384-4.460592-92.235704-49.078789-139.084709-133.855614-140.54906-62.46568 1.464351-100.391455 23.041786-113.777323 64.697511 0 11.886725 5.925966 18.579147 17.847483 20.078291 4.461615 0 12.618389-5.228071 24.539906-15.616676 23.77345-17.847483 48.312332-26.771737 73.619718-26.771737 47.581692 2.963495 73.621764 32.697703 78.083379 89.237417-2.998287 55.006801-26.771737 84.009346-71.389934 87.00661-16.383132 0-34.230616-3.729951-53.541427-11.154038-7.460925-2.997264-12.653181-4.462638-15.617699-4.462638-11.921517 0-17.847483 5.194302-17.847483 15.616676 0 4.461615 1.465374 15.616676 4.462638 33.464159l22.308075 140.54906c-1.499144 8.924253 4.460592 13.385868 17.847483 13.385868l140.54906 0c13.384845-1.499144 20.809955-8.191566 22.309098-20.078291-1.499144-14.883989-8.924253-22.309098-22.309098-22.309098L569.189002 539.670455z"  horiz-adv-x="1024" />

    
    <glyph glyph-name="iconfontbaoyou1" unicode="&#58891;" d="M128.243816 381.099968l64.127527 0 0-509.099932-64.127527 0 0 509.099932ZM831.596934 381.099968l64.127527 0 0-509.099932-64.127527 0 0 509.099932ZM64.798834 575.529163l63.444982 0 0-255.826541-63.444982 0 0 255.826541ZM895.724461 575.529163l63.444982 0 0-255.826541-63.444982 0 0 255.826541ZM64.798834 576.210684l894.369586 0 0-63.444982-894.369586 0 0 63.444982ZM100.273789 384.511671l796.81474 0 0-64.809049-796.81474 0 0 64.809049ZM139.839922-63.189891l717.681451 0 0-64.810072-717.681451 0 0 64.810072ZM447.686231 538.008619l127.403664 0 0-631.720663-127.403664 0 0 631.720663ZM525.57518 575.481067C520.1711 852.523814 307.521939 968.57799 217.452578 847.92917 109.564386 703.411734 324.718599 571.434915 324.718599 571.434915s6.006807-13.82589 73.319887-24.091697C436.892398 541.417252 527.55323 474.091893 525.57518 575.481067zM434.55312 574.164072c-44.342926 0-111.388922 55.775302-111.388922 55.775302s-89.726554 91.654463-48.233536 156.802227c38.189786 59.962671 177.27142 5.01727 180.40376-155.547653C456.481547 572.432638 457.332938 574.164072 434.55312 574.164072zM621.035318 547.343218c67.313079 10.266831 73.319887 24.091697 73.319887 24.091697s223.074604 127.682003 104.83567 275.269358C705.055917 964.207449 498.904751 852.523814 493.499648 575.481067 491.521597 474.091893 582.18243 541.417252 621.035318 547.343218zM563.739383 631.193948C566.872746 791.759894 708.345847 843.779663 744.144166 786.742624c40.721445-64.880681-48.233536-156.802227-48.233536-156.802227s-67.04702-55.775302-111.389946-55.775302C561.741889 574.164072 562.59328 572.432638 563.739383 631.193948z"  horiz-adv-x="1024" />

    
    <glyph glyph-name="iconfonticonposition1" unicode="&#58892;" d="M511.998977-64.591855c-30.317493 0-348.903411 357.257683-348.903411 549.353746 0 192.0889 156.194388 347.829963 348.903411 347.829963 192.706977 0 348.906481-155.718551 348.906481-347.829963C860.904435 292.646386 540.768207-64.591855 511.998977-64.591855L511.998977-64.591855zM511.998977 787.705552c-167.83245 0-303.883055-135.651516-303.883055-302.94366 0-167.341263 295.377334-504.474606 303.883055-504.474606 3.917216 0 303.888172 337.133344 303.888172 504.474606C815.886125 652.054035 679.836543 787.705552 511.998977 787.705552L511.998977 787.705552zM511.998977 361.334791c-68.359924 0-123.805724 55.271838-123.805724 123.4271 0 68.1481 55.4458 123.421984 123.805724 123.421984 68.36811 0 123.808794-55.273884 123.808794-123.421984C635.806747 416.606629 580.366064 361.334791 511.998977 361.334791L511.998977 361.334791zM511.998977 563.302689c-43.50791 0-78.785368-35.184337-78.785368-78.540797 0-43.403532 35.276435-78.542844 78.785368-78.542844 43.513026 0 78.785368 35.139312 78.785368 78.542844C590.783321 528.118352 555.512003 563.302689 511.998977 563.302689L511.998977 563.302689z"  horiz-adv-x="1024" />

    
    <glyph glyph-name="iconfontkuaixiufuwu1" unicode="&#58893;" d="M960.473151 50.055279c-1.548262-6.984065-2.834558-14.038738-4.685719-20.941961-12.830213-47.855938-52.650127-82.763982-101.613282-89.303932-1.866511-0.249687-3.663436-1.01819-5.493108-1.545192-7.230682 0-14.46034 0-21.691021 0-0.737804 0.370437-1.449002 0.99056-2.217505 1.074472-32.172747 3.504824-57.703213 19.028379-80.298837 41.684378C641.402185 84.371852 537.844621 187.236638 434.607352 290.420695c-4.64888 4.64581-8.423857 5.950526-15.030321 3.935636-40.226167-12.265348-81.319074-15.217586-122.827443-8.499581C136.313595 311.820074 34.695197 466.611509 74.797543 624.046145c3.986801 15.651468 10.076496 30.767747 15.268752 46.367027 27.688619-25.397437 53.864792-49.469692 80.111572-73.464175 22.25077-20.341281 48.288796-30.330796 78.148871-23.813359 36.81958 8.036024 61.853743 31.159674 73.261561 66.944691 11.06194 34.700313-0.325411 64.321958-24.912389 89.825818-21.223371 22.014386-42.218544 44.246737-63.283302 66.413596-2.610454 2.746554-5.022387 5.680373-8.114818 9.197476 3.465938 1.596358 5.89629 2.816139 8.401344 3.854794 47.564295 19.717064 96.770997 25.837458 147.785881 18.48705 164.208922-23.659863 270.299169-189.912327 222.183312-348.84406-2.285043-7.546883-0.914836-11.903098 4.469801-17.256012C712.623273 357.873969 816.885895 253.748471 921.327596 149.803074c16.949021-16.868179 29.142737-36.306904 35.059494-59.529815 1.560542-6.125511 2.734274-12.348236 4.086062-18.526959C960.473151 64.515618 960.473151 57.28596 960.473151 50.055279zM152.747893 454.208015c53.733808-99.530854 176.266539-138.671293 279.598976-89.045035 7.43432 3.570315 11.273764 2.365884 16.758686-3.121084C563.2922 247.807155 677.668157 133.762749 792.051277 19.724483c24.932856-24.857131 60.536748-27.074635 85.704964-5.552459 25.808806 22.069645 28.600385 61.160965 6.132674 86.60752-2.755764 3.122107-5.763261 6.02625-8.714476 8.970302C762.0111 222.649172 648.844691 335.545428 535.642466 448.404846c-2.349511 2.342348-5.136997 4.246721-7.277754 5.993504 39.074947 84.259032 35.503609 163.759691-22.011316 236.833987-40.496319 51.450812-95.824439 75.129094-162.949232 77.895091 33.503045-38.972617 47.260373-82.07325 39.039131-131.085524-5.807263-34.621519-22.499433-63.561641-48.521087-87.146802-50.299593-45.591361-138.071635-57.196677-206.309786 2.155083C128.372739 517.026736 136.38318 484.521414 152.747893 454.208015z"  horiz-adv-x="1024" />

    
    <glyph glyph-name="iconfontzaixiankefu1" unicode="&#58894;" d="M741.727232 51.862c17.036288-14.362 23.862272-7.909 28.09344 11.516l-30.461952 105.245 155.780096 0c43.420672 0 78.598144 34.344 78.598144 76.745L973.73696 695.046c0 42.401-35.177472 76.749-78.598144 76.749l-766.27968-0.004c-43.428864 0-78.594048-34.344-78.594048-76.745l0-449.678 0.001024 0c0-42.401 35.165184-76.745 78.594048-76.745L584.66304 168.623M236.747776 466.022c0 33.672 27.984896 61.011 62.477312 61.011 34.481152 0 62.477312-27.338 62.477312-61.011 0-33.683-27.99616-61.011-62.477312-61.011C264.731648 405.012 236.747776 432.339 236.747776 466.022zM461.661184 466.022c0 33.672 27.984896 61.011 62.476288 61.011 34.492416 0 62.477312-27.338 62.477312-61.011 0-33.683-27.984896-61.011-62.477312-61.011C489.645056 405.012 461.661184 432.339 461.661184 466.022zM686.572544 466.022c0 33.672 27.995136 61.011 62.478336 61.011 34.492416 0 62.476288-27.338 62.476288-61.011 0-33.683-27.983872-61.011-62.476288-61.011C714.56768 405.012 686.572544 432.339 686.572544 466.022z"  horiz-adv-x="1024" />

    
    <glyph glyph-name="iconfont1" unicode="&#58895;" d="M154.437818-123.648c-82.757818 0-150.085818 67.328-150.085818 150.085818 0 82.734545 67.328 150.062545 150.085818 150.062545 82.734545 0 150.062545-67.351273 150.062545-150.062545C304.500364-56.32 237.172364-123.648 154.437818-123.648zM154.437818 128.721455c-56.413091 0-102.306909-45.870545-102.306909-102.283636s45.917091-102.306909 102.306909-102.306909 102.306909 45.917091 102.306909 102.306909S210.850909 128.721455 154.437818 128.721455zM154.437818 591.453091c-82.757818 0-150.085818 67.328-150.085818 150.085818 0 82.781091 67.328 150.109091 150.085818 150.109091 82.734545 0 150.062545-67.328 150.062545-150.109091C304.500364 658.781091 237.172364 591.453091 154.437818 591.453091zM154.437818 843.869091c-56.413091 0-102.306909-45.917091-102.306909-102.330182s45.917091-102.306909 102.306909-102.306909 102.306909 45.917091 102.306909 102.306909S210.850909 843.869091 154.437818 843.869091zM154.437818 234.798545c-82.757818 0-150.085818 67.328-150.085818 150.085818 0 82.757818 67.328 150.085818 150.085818 150.085818 82.734545 0 150.062545-67.328 150.062545-150.085818C304.500364 302.103273 237.172364 234.798545 154.437818 234.798545zM154.437818 487.168c-56.413091 0-102.306909-45.893818-102.306909-102.306909 0-56.389818 45.917091-102.306909 102.306909-102.306909s102.306909 45.917091 102.306909 102.306909C256.744727 441.274182 210.850909 487.168 154.437818 487.168zM512-123.648c-82.757818 0-150.085818 67.328-150.085818 150.085818 0 82.734545 67.328 150.062545 150.085818 150.062545 82.734545 0 150.062545-67.351273 150.062545-150.062545C662.039273-56.32 594.734545-123.648 512-123.648zM512 128.721455c-56.413091 0-102.306909-45.870545-102.306909-102.283636S455.586909-75.869091 512-75.869091c56.413091 0 102.283636 45.917091 102.283636 102.306909S568.413091 128.721455 512 128.721455zM512 591.453091c-82.757818 0-150.085818 67.328-150.085818 150.085818 0 82.781091 67.328 150.109091 150.085818 150.109091 82.734545 0 150.062545-67.328 150.062545-150.109091C662.039273 658.781091 594.734545 591.453091 512 591.453091zM512 843.869091c-56.413091 0-102.306909-45.917091-102.306909-102.330182s45.893818-102.306909 102.306909-102.306909c56.413091 0 102.283636 45.917091 102.283636 102.306909S568.413091 843.869091 512 843.869091zM512 234.798545c-82.757818 0-150.085818 67.328-150.085818 150.085818 0 82.757818 67.328 150.085818 150.085818 150.085818 82.734545 0 150.062545-67.328 150.062545-150.085818C662.039273 302.103273 594.734545 234.798545 512 234.798545zM512 487.168c-56.413091 0-102.306909-45.893818-102.306909-102.306909 0-56.389818 45.893818-102.306909 102.306909-102.306909 56.413091 0 102.283636 45.917091 102.283636 102.306909C614.283636 441.274182 568.413091 487.168 512 487.168zM869.538909-123.648c-82.781091 0-150.085818 67.328-150.085818 150.085818 0 82.734545 67.328 150.062545 150.085818 150.062545s150.085818-67.351273 150.085818-150.062545C1019.648-56.32 952.32-123.648 869.538909-123.648zM869.538909 128.721455c-56.413091 0-102.306909-45.870545-102.306909-102.283636s45.917091-102.306909 102.306909-102.306909 102.306909 45.917091 102.306909 102.306909S925.952 128.721455 869.538909 128.721455zM869.538909 591.453091c-82.781091 0-150.085818 67.328-150.085818 150.085818 0 82.781091 67.328 150.109091 150.085818 150.109091s150.085818-67.328 150.085818-150.109091C1019.648 658.781091 952.32 591.453091 869.538909 591.453091zM869.538909 843.869091c-56.413091 0-102.306909-45.917091-102.306909-102.330182s45.917091-102.306909 102.306909-102.306909 102.306909 45.917091 102.306909 102.306909S925.952 843.869091 869.538909 843.869091zM869.538909 234.798545c-82.781091 0-150.085818 67.328-150.085818 150.085818 0 82.757818 67.328 150.085818 150.085818 150.085818s150.085818-67.328 150.085818-150.085818C1019.648 302.103273 952.32 234.798545 869.538909 234.798545zM869.538909 487.168c-56.413091 0-102.306909-45.893818-102.306909-102.306909 0-56.389818 45.917091-102.306909 102.306909-102.306909s102.306909 45.917091 102.306909 102.306909C971.869091 441.274182 925.952 487.168 869.538909 487.168z"  horiz-adv-x="1024" />

    
    <glyph glyph-name="iconfont2" unicode="&#58896;" d="M154.437818-123.648c-82.757818 0-150.085818 67.328-150.085818 150.085818 0 82.734545 67.328 150.062545 150.085818 150.062545 82.734545 0 150.062545-67.351273 150.062545-150.062545C304.500364-56.32 237.172364-123.648 154.437818-123.648zM154.437818 591.453091c-82.757818 0-150.085818 67.328-150.085818 150.085818 0 82.781091 67.328 150.109091 150.085818 150.109091 82.734545 0 150.062545-67.328 150.062545-150.109091C304.500364 658.781091 237.172364 591.453091 154.437818 591.453091zM154.437818 234.798545c-82.757818 0-150.085818 67.328-150.085818 150.085818 0 82.757818 67.328 150.085818 150.085818 150.085818 82.734545 0 150.062545-67.328 150.062545-150.085818C304.500364 302.103273 237.172364 234.798545 154.437818 234.798545zM512-123.648c-82.757818 0-150.085818 67.328-150.085818 150.085818 0 82.734545 67.328 150.062545 150.085818 150.062545 82.734545 0 150.062545-67.351273 150.062545-150.062545C662.039273-56.32 594.734545-123.648 512-123.648zM512 591.453091c-82.757818 0-150.085818 67.328-150.085818 150.085818 0 82.781091 67.328 150.109091 150.085818 150.109091 82.734545 0 150.062545-67.328 150.062545-150.109091C662.039273 658.781091 594.734545 591.453091 512 591.453091zM512 234.798545c-82.757818 0-150.085818 67.328-150.085818 150.085818 0 82.757818 67.328 150.085818 150.085818 150.085818 82.734545 0 150.062545-67.328 150.062545-150.085818C662.039273 302.103273 594.734545 234.798545 512 234.798545zM869.538909-123.648c-82.781091 0-150.085818 67.328-150.085818 150.085818 0 82.734545 67.328 150.062545 150.085818 150.062545s150.085818-67.351273 150.085818-150.062545C1019.648-56.32 952.32-123.648 869.538909-123.648zM869.538909 591.453091c-82.781091 0-150.085818 67.328-150.085818 150.085818 0 82.781091 67.328 150.109091 150.085818 150.109091s150.085818-67.328 150.085818-150.109091C1019.648 658.781091 952.32 591.453091 869.538909 591.453091zM869.538909 234.798545c-82.781091 0-150.085818 67.328-150.085818 150.085818 0 82.757818 67.328 150.085818 150.085818 150.085818s150.085818-67.328 150.085818-150.085818C1019.648 302.103273 952.32 234.798545 869.538909 234.798545z"  horiz-adv-x="1024" />

    
    <glyph glyph-name="iconfont7tian1" unicode="&#58897;" d="M953.235306 584.00008c0 0-0.069585-0.190335-0.195451-0.542352l-0.076748 0.542352-73.084529-151.585417 77.526701 8.919137c5.582135-64.582901-3.53757-130.080637-27.467585-192.110389-20.960381-54.332443-51.928696-102.927207-92.044346-144.4366-38.752606-40.099277-84.373643-71.942519-135.594211-94.64559-51.220568-22.702048-105.452727-35.117822-161.189146-36.899398-57.697073-1.845021-114.499777 7.847735-168.83222 28.807093-54.332443 20.960381-102.928231 51.928696-144.437623 92.044346-40.098253 38.752606-71.942519 84.373643-94.64559 135.594211-22.702048 51.220568-35.117822 105.452727-36.899398 161.189146-1.843998 57.69605 7.847735 114.499777 28.808116 168.83222 20.960381 54.332443 51.928696 102.928231 92.043323 144.437623 38.752606 40.098253 84.374666 71.942519 135.594211 94.64559 51.220568 22.702048 105.45375 35.117822 161.189146 36.899398 57.69605 1.843998 114.499777-7.847735 168.83222-28.808116 49.389874-19.053961 94.204545-46.495964 133.199675-81.566714l20.528546 22.825868c-41.784662 37.578874-89.788979 66.979484-142.679583 87.383186-58.186214 22.447245-119.037117 32.82664-180.862207 30.849612-59.706847-1.909489-117.794823-15.204283-172.648129-39.517015-54.853305-24.312732-103.715153-58.421574-145.229662-101.376898-42.987047-44.479027-76.163657-96.535637-98.610902-154.721851C74.014714 512.572284 63.635319 451.721381 65.612347 389.89629c1.908466-59.70787 15.204283-117.794823 39.517015-172.648129 24.312732-54.853305 58.421574-103.716176 101.376898-145.230686 44.479027-42.987047 96.535637-76.163657 154.721851-98.610902 58.186214-22.447245 119.037117-32.82664 180.862207-30.849612 59.70787 1.908466 117.794823 15.204283 172.648129 39.518039 54.853305 24.312732 103.716176 58.420551 145.229662 101.376898 42.987047 44.479027 76.163657 96.535637 98.610902 154.721851C1001.871003 350.392578 999.97277 473.209788 953.235306 584.00008zM521.193383 200.47515c10.339486 119.020744 57.552787 232.886071 141.671627 341.565283l0 60.162218L367.876532 602.202651l0-67.925019 205.715245 0c-77.628008-104.798834-124.204813-216.086453-139.731438-333.802482L521.193383 200.47515z"  horiz-adv-x="1024" />

    
    <glyph glyph-name="iconfontangleleft" unicode="&#58900;" d="M665.945161 8.985908c12.56313-12.465916 32.794917-12.367679 45.232181 0.160659l-0.002047 0c12.398378 12.558014 12.33391 32.759101-0.194428 45.189202L380.512317 381.791705l329.062528 332.023976c12.43317 12.559037 12.340049 32.760125-0.189312 45.225017-12.565177 12.435217-32.79594 12.339026-45.232181-0.190335L314.440505 405.956058c-0.541329-0.546446-0.668219-1.248434-1.180895-1.789763-0.124843-0.130983-0.285502-0.161682-0.415462-0.285502-6.16849-6.232958-9.271154-14.387685-9.271154-22.503527 0-8.213056 3.165086-16.45988 9.462512-22.692838L665.945161 8.985908z"  horiz-adv-x="1024" />

    
    <glyph glyph-name="iconfontangleright" unicode="&#58901;" d="M358.054839 8.985908c-12.56313-12.465916-32.794917-12.367679-45.232181 0.160659l0.002047 0c-12.398378 12.558014-12.33391 32.759101 0.194428 45.189202l330.46855 327.455937L314.424132 713.815681c-12.43317 12.559037-12.340049 32.760125 0.189312 45.225017 12.565177 12.435217 32.79594 12.339026 45.232181-0.190335L709.558471 405.956058c0.541329-0.546446 0.668219-1.248434 1.180895-1.789763 0.124843-0.130983 0.285502-0.161682 0.415462-0.285502 6.16849-6.232958 9.271154-14.387685 9.271154-22.503527 0-8.213056-3.165086-16.45988-9.462512-22.692838L358.054839 8.985908z"  horiz-adv-x="1024" />

    
    <glyph glyph-name="iconfontangleup" unicode="&#58902;" d="M136.984884 230.054839c-12.465916-12.56313-12.367679-32.794917 0.160659-45.232181l0 0.002047c12.558014-12.398378 32.759101-12.33391 45.189202 0.194428l327.455937 330.46855 332.023976-329.062528c12.559037-12.43317 32.760125-12.340049 45.225017 0.189312 12.435217 12.565177 12.339026 32.79594-0.190335 45.232181L533.956058 581.559495c-0.546446 0.541329-1.248434 0.668219-1.789763 1.180895-0.130983 0.124843-0.161682 0.285502-0.285502 0.415462-6.232958 6.16849-14.387685 9.271154-22.503527 9.271154-8.213056 0-16.45988-3.165086-22.692838-9.462512L136.984884 230.054839z"  horiz-adv-x="1024" />

    
    <glyph glyph-name="iconfontcite" unicode="&#58905;" d="M479.615429 523.978055l0-155.216107c-8.769734-78.782298-47.084365-113.813139-114.89068-124.738979L364.724749 296.544159c21.849634 2.15406 36.108383 18.566868 42.673915 49.239448l0 22.978341-72.204485 0L335.194178 523.978055 479.615429 523.978055zM688.806845 523.978055l0-155.216107c-8.769734-76.628238-47.084365-111.608937-114.891703-124.738979L573.915142 296.544159c8.720615 2.15406 17.49035 8.719592 26.261107 19.695574 8.720615 10.92584 14.207583 20.773116 16.412808 29.543873l0 22.978341-71.120804 0L545.468253 523.978055 688.806845 523.978055z"  horiz-adv-x="1024" />

    
    <glyph glyph-name="iconfontdelete" unicode="&#58906;" d="M515.863273-128c-282.321455 0-512 229.678545-512 512 0 282.298182 229.678545 512 512 512s512-229.701818 512-512C1027.863273 101.678545 798.184727-128 515.863273-128zM515.863273 851.479273C258.094545 851.479273 48.384 641.768727 48.384 384s209.710545-467.502545 467.479273-467.502545S983.342545 126.231273 983.342545 384 773.632 851.479273 515.863273 851.479273zM750.126545 364.450909c-4.026182-4.002909-9.565091-6.516364-15.732364-6.516364L298.449455 357.934545c-12.311273 0-22.272 9.960727-22.272 22.272 0 12.288 9.960727 22.248727 22.248727 22.248727l435.968 0c12.334545 0.023273 22.295273-9.937455 22.272-22.248727C756.689455 374.039273 754.176 368.477091 750.126545 364.450909z"  horiz-adv-x="1028" />

    
    <glyph glyph-name="iconfontdisorder" unicode="&#58907;" d="M367.797737 230.451882l398.407895 0 0-62.828954-398.407895 0 0 62.828954ZM367.797737 415.414477l398.407895 0 0-62.828954-398.407895 0 0 62.828954ZM367.797737 600.377072l398.407895 0 0-62.828954-398.407895 0 0 62.828954ZM257.793344 230.451882l63.444984 0 0-62.828954-63.444984 0 0 62.828954ZM257.793344 415.414477l63.444984 0 0-62.828954-63.444984 0 0 62.828954ZM257.793344 600.377072l63.444984 0 0-62.828954-63.444984 0 0 62.828954Z"  horiz-adv-x="1024" />

    
    <glyph glyph-name="iconfontdown" unicode="&#58908;" d="M491.217455 141.358545 11.147636 621.428364c-11.031273 10.938182-11.031273 28.928 0 39.982545 11.054545 11.008 29.021091 11.008 40.005818 0L512 200.541091l460.869818 460.846545c11.031273 11.008 28.928 11.008 40.005818 0 11.031273-11.054545 11.031273-29.044364 0-39.982545L532.829091 141.358545c-5.701818-5.725091-13.312-8.308364-20.829091-8.098909C504.482909 133.050182 496.919273 135.633455 491.217455 141.358545"  horiz-adv-x="1024" />

    
    <glyph glyph-name="iconfontgrid" unicode="&#58909;" d="M320 589.4c0-7.4-6-13.4-13.4-13.4l-101 0c-7.4 0-13.4 6-13.4 13.4l0 101c0 7.4 6 13.4 13.4 13.4l101 0c7.4 0 13.4-6 13.4-13.4L320 589.4zM576 589.4c0-7.4-6-13.4-13.4-13.4l-101 0c-7.4 0-13.4 6-13.4 13.4l0 101c0 7.4 6 13.4 13.4 13.4l101 0c7.4 0 13.4-6 13.4-13.4L576 589.4zM832 589.4c0-7.4-6-13.4-13.4-13.4l-101 0c-7.4 0-13.4 6-13.4 13.4l0 101c0 7.4 6 13.4 13.4 13.4l101 0c7.4 0 13.4-6 13.4-13.4L832 589.4zM320 333.4c0-7.4-6-13.4-13.4-13.4l-101 0c-7.4 0-13.4 6-13.4 13.4l0 101c0 7.4 6 13.4 13.4 13.4l101 0c7.4 0 13.4-6 13.4-13.4L320 333.4zM576 333.4c0-7.4-6-13.4-13.4-13.4l-101 0c-7.4 0-13.4 6-13.4 13.4l0 101c0 7.4 6 13.4 13.4 13.4l101 0c7.4 0 13.4-6 13.4-13.4L576 333.4zM832 333.4c0-7.4-6-13.4-13.4-13.4l-101 0c-7.4 0-13.4 6-13.4 13.4l0 101c0 7.4 6 13.4 13.4 13.4l101 0c7.4 0 13.4-6 13.4-13.4L832 333.4zM320 77.4c0-7.4-6-13.4-13.4-13.4l-101 0c-7.4 0-13.4 6-13.4 13.4l0 101c0 7.4 6 13.4 13.4 13.4l101 0c7.4 0 13.4-6 13.4-13.4L320 77.4zM576 77.4c0-7.4-6-13.4-13.4-13.4l-101 0c-7.4 0-13.4 6-13.4 13.4l0 101c0 7.4 6 13.4 13.4 13.4l101 0c7.4 0 13.4-6 13.4-13.4L576 77.4zM832 77.4c0-7.4-6-13.4-13.4-13.4l-101 0c-7.4 0-13.4 6-13.4 13.4l0 101c0 7.4 6 13.4 13.4 13.4l101 0c7.4 0 13.4-6 13.4-13.4L832 77.4z"  horiz-adv-x="1024" />

    
    <glyph glyph-name="iconfonticonfontcart" unicode="&#58910;" d="M352.511759 64c-35.360409 0-64-28.639591-64-64 0-35.360409 28.639591-64 64-64s64 28.639591 64 64C416.511759 35.360409 387.872168 64 352.511759 64L352.511759 64zM800.511759 64c-35.360409 0-64-28.639591-64-64 0-35.360409 28.639591-64 64-64s64 28.639591 64 64C864.511759 35.360409 835.872168 64 800.511759 64L800.511759 64zM864.00086 95.99914l-519.775299 0c-46.111652 0-86.65674 36.480258-92.288671 83.039161l-54.272275 382.080258L166.783604 739.680366C164.863862 755.263647 150.65674 768 136.767854 768l-40.768714 0c-17.664722 0-32.00086 14.336138-32.00086 31.99914s14.336138 32.00086 32.00086 32.00086l40.768714 0c46.687918 0 87.680258-36.480258 93.343153-83.039161l30.815643-177.887488 54.495901-383.712727c1.792447-14.848757 15.232361-27.359763 28.79957-27.359763l519.775299 0c17.695686 0 31.99914-14.303454 31.99914-32.00086S881.696546 95.99914 864.00086 95.99914zM384.223626 223.99914c-16.60852 0-30.655665 12.8-31.871845 29.66483-1.312512 17.632039 11.93646 32.960731 29.535815 34.240559L816.00043 319.905389c15.935923 0.096331 29.375837 12.607338 31.1356 26.848864l50.400108 288.384464c1.279828 10.751243-1.696116 22.527725-8.12794 29.824808-4.128477 4.67206-9.311437 7.040774-15.359656 7.040774L320 672.0043c-17.664722 0-31.99914 14.336138-31.99914 32.00086s14.336138 32.00086 31.99914 32.00086l554.048542 0c24.447467 0 46.911544-10.144013 63.263755-28.608628 18.688241-21.087918 27.263432-50.816396 23.52028-81.632039l-50.432791-288.415428c-5.439269-44.864507-45.951673-81.344765-92.063325-81.344765l-431.74412-31.904529C385.792447 224.031824 384.992555 223.99914 384.223626 223.99914z"  horiz-adv-x="1024" />

    
    <glyph glyph-name="iconfonticonfontclose" unicode="&#58911;" d="M512-64c-247.039484 0-448 200.960516-448 448S264.960516 832 512 832 960 631.039484 960 384 759.039484-64 512-64zM512 767.712727c-211.584464 0-383.712727-172.128262-383.712727-383.712727 0-211.551781 172.128262-383.712727 383.712727-383.712727 211.551781 0 383.712727 172.159226 383.712727 383.712727C895.712727 595.584464 723.551781 767.712727 512 767.712727zM557.05545 382.623841l138.367639 136.864185c12.576374 12.416396 12.672705 32.671738 0.25631 45.248112s-32.704421 12.672705-45.248112 0.25631l-138.560301-137.024163-136.447897 136.864185c-12.512727 12.512727-32.735385 12.576374-45.248112 0.063647-12.512727-12.480043-12.54369-32.735385-0.063647-45.248112l136.255235-136.671523-137.376804-135.904314c-12.576374-12.447359-12.672705-32.671738-0.25631-45.248112 6.271845-6.335493 14.496116-9.504099 22.751351-9.504099 8.12794 0 16.25588 3.103239 22.496761 9.247789l137.567746 136.064292 138.687596-139.136568c6.240882-6.271845 14.432469-9.407768 22.65674-9.407768 8.191587 0 16.352211 3.135923 22.591372 9.34412 12.512727 12.480043 12.54369 32.704421 0.063647 45.248112L557.05545 382.623841z"  horiz-adv-x="1024" />

    
    <glyph glyph-name="iconfonticonfontclosefill" unicode="&#58912;" d="M512 832c-247.00852 0-448-200.960516-448-448S264.960516-64 512-64c247.00852 0 448 200.960516 448 448S759.039484 832 512 832zM694.752211 246.015966c12.480043-12.54369 12.447359-32.768069-0.063647-45.248112-6.239161-6.208198-14.399785-9.34412-22.591372-9.34412-8.224271 0-16.415858 3.135923-22.65674 9.407768l-137.60043 138.016718-138.047682-136.576912c-6.239161-6.14455-14.368821-9.247789-22.496761-9.247789-8.255235 0-16.479505 3.168606-22.751351 9.504099-12.416396 12.576374-12.320065 32.800753 0.25631 45.248112l137.887703 136.384249-137.376804 137.824056c-12.480043 12.512727-12.447359 32.768069 0.063647 45.248112 12.512727 12.512727 32.735385 12.447359 45.248112-0.063647l137.567746-137.984034 138.047682 136.575192c12.54369 12.447359 32.831716 12.320065 45.248112-0.25631 12.447359-12.576374 12.320065-32.831716-0.25631-45.248112L557.344443 383.872705 694.752211 246.015966z"  horiz-adv-x="1024" />

    
    <glyph glyph-name="iconfonticonfontdingwei" unicode="&#58913;" d="M115.264 473.344C112.576 654.016 223.488 815.36 388.352 870.784c185.024 62.336 367.616 5.568 482.24-149.504 104.128-141.056 105.728-348.032-0.896-489.408-78.528-103.872-161.28-204.608-244.352-304.64-62.72-75.264-130.688-72.64-192.64 4.352-76.096 94.656-153.152 188.48-226.816 284.992C148.672 291.648 112.64 376.192 115.264 473.344zM168.448 473.408C161.28 403.136 189.184 332.224 233.92 271.616c79.552-108.224 165.568-211.904 250.112-316.48 33.472-41.6 69.568-32.512 99.84 4.608 81.728 101.248 166.976 200 241.984 305.728 99.52 140.608 92.48 307.776-7.872 437.12-94.848 122.048-257.152 170.624-403.392 120.64C266.432 772.544 168.448 636.928 168.448 473.408zM351.552 479.04c0 101.824 73.792 178.688 172.032 179.2 108.032 0.512 190.144-75.648 190.784-176.96 0.64-102.912-83.136-186.688-184.96-185.344C427.584 297.6 351.744 375.616 351.552 479.04zM532.352 605.312C461.696 606.144 407.296 553.28 405.376 482.112c-1.92-73.344 53.696-131.328 126.592-131.84 69.504-0.384 126.144 54.912 127.424 124.672C660.864 549.376 607.104 604.48 532.352 605.312z"  horiz-adv-x="1024" />

    
    <glyph glyph-name="iconfonticonfonterweima" unicode="&#58914;" d="M992-128c-17.7 0-32 14.3-32 32l0 352c0 17.7 14.3 32 32 32s32-14.3 32-32l0-352C1024-113.7 1009.7-128 992-128zM992 352 32 352c-17.7 0-32 14.3-32 32 0 17.7 14.3 32 32 32l960 0c17.7 0 32-14.3 32-32C1024 366.3 1009.7 352 992 352zM960 480 672 480c-35.3 0-64 28.7-64 64l0 288c0 35.3 28.7 64 64 64l288 0c35.3 0 64-28.7 64-64l0-288C1024 508.7 995.3 480 960 480zM960 832 672 832l0-288 288 0L960 832zM512 480c-17.7 0-32 14.3-32 32l0 352c0 17.7 14.3 32 32 32s32-14.3 32-32l0-352C544 494.3 529.7 480 512 480zM352 480 64 480c-35.3 0-64 28.7-64 64l0 288c0 35.3 28.7 64 64 64l288 0c35.3 0 64-28.7 64-64l0-288C416 508.7 387.3 480 352 480zM352 832 64 832l0-288 288 0L352 832zM64 288l288 0c35.3 0 64-28.7 64-64l0-288c0-35.3-28.7-64-64-64L64-128c-35.3 0-64 28.7-64 64l0 288C0 259.3 28.7 288 64 288zM64-64l288 0 0 288L64 224 64-64zM512 288c17.7 0 32-14.3 32-32l0-352c0-17.7-14.3-32-32-32s-32 14.3-32 32l0 352C480 273.7 494.3 288 512 288zM672 288c17.7 0 32-14.3 32-32l0-352c0-17.7-14.3-32-32-32s-32 14.3-32 32l0 352C640 273.7 654.3 288 672 288zM832 288c17.7 0 32-14.3 32-32l0-96c0-17.7-14.3-32-32-32s-32 14.3-32 32l0 96C800 273.7 814.3 288 832 288zM832 64c17.7 0 32-14.3 32-32l0-128c0-17.7-14.3-32-32-32s-32 14.3-32 32l0 128C800 49.7 814.3 64 832 64z"  horiz-adv-x="1024" />

    
    <glyph glyph-name="iconfonticonfontroundadd" unicode="&#58915;" d="M512-62.016611c-119.648434 0-232.1288 46.367961-316.736783 130.559656-84.640667 84.255342-131.263217 196.255772-131.263217 315.455235 0 119.168499 46.624271 231.199892 131.232254 315.424271 84.607983 84.191695 197.088348 130.559656 316.736783 130.559656s232.1288-46.367961 316.704099-130.559656c84.67163-84.224378 131.263217-196.255772 131.263217-315.391587 0.032684-119.199462-46.591587-231.232576-131.263217-315.455235C744.1288-15.615966 631.648434-62.016611 512-62.016611zM512 766.016611c-102.623626 0-199.071738-39.743475-271.583282-111.936783-72.480581-72.12794-112.416718-168.063432-112.416718-270.079828s39.903454-197.951888 112.384034-270.047144c72.511544-72.191587 168.959656-111.936783 271.583282-111.936783 102.592662 0 199.071738 39.743475 271.583282 111.936783 72.480581 72.160624 112.416718 168.063432 112.384034 270.079828 0 102.016396-39.903454 197.919204-112.384034 270.016181C711.071738 726.240452 614.592662 766.016611 512 766.016611zM736.00086 415.99914 544.00086 415.99914 544.00086 607.99914c0 17.664722-14.336138 32.00086-32.00086 32.00086s-32.00086-14.336138-32.00086-32.00086l0-192L288.00086 415.99914c-17.664722 0-32.00086-14.336138-32.00086-32.00086s14.336138-32.00086 32.00086-32.00086l192 0 0-192c0-17.695686 14.336138-32.00086 32.00086-32.00086s32.00086 14.303454 32.00086 32.00086L544.00258 351.99914l192 0c17.695686 0 32.00086 14.336138 32.00086 32.00086S753.696546 415.99914 736.00086 415.99914z"  horiz-adv-x="1024" />

    
    <glyph glyph-name="iconfonticonfontroundaddfill" unicode="&#58916;" d="M828.704099 699.424271C744.096116 783.615966 631.648434 829.983927 512 829.983927s-232.1288-46.367961-316.736783-130.559656C110.624271 615.199892 64 503.168499 64 384c0-119.199462 46.624271-231.199892 131.232254-315.424271 84.607983-84.191695 197.088348-130.559656 316.736783-130.559656s232.1288 46.367961 316.704099 130.559656c84.67163 84.255342 131.295901 196.288456 131.263217 315.455235C959.967316 503.199462 913.375729 615.199892 828.704099 699.424271zM736.00086 351.99914 544.00086 351.99914l0-192c0-17.695686-14.336138-32.00086-32.00086-32.00086s-32.00086 14.303454-32.00086 32.00086L479.99914 351.99914 288.00086 351.99914c-17.664722 0-32.00086 14.336138-32.00086 32.00086s14.336138 32.00086 32.00086 32.00086l192 0L480.00086 607.99914c0 17.664722 14.336138 32.00086 32.00086 32.00086s32.00086-14.336138 32.00086-32.00086l0-192 192 0c17.695686 0 32.00086-14.336138 32.00086-32.00086S753.696546 351.99914 736.00086 351.99914z"  horiz-adv-x="1024" />

    
    <glyph glyph-name="iconfonticonfontweibo" unicode="&#58917;" d="M386.1504 162.816q11.264 18.432 6.144 38.912t-25.6 28.672q-19.456 8.192-41.984 0t-33.792-25.6q-13.312-19.456-8.192-38.912t24.576-29.696 43.008-1.024 35.84 27.648zM439.3984 231.424q5.12 7.168 2.048 15.36t-10.24 10.24q-7.168 3.072-16.384 0t-12.288-10.24q-9.216-18.432 8.192-26.624 8.192-2.048 16.384 1.024t12.288 10.24zM538.7264 169.984q-25.6-58.368-90.112-84.992t-128-7.168q-61.44 19.456-83.968 72.704t3.072 106.496q27.648 53.248 87.04 79.872t119.808 10.24q63.488-16.384 91.136-67.584t1.024-109.568zM716.9024 262.144q-5.12 54.272-50.176 96.256t-119.808 62.464-156.672 12.288q-126.976-13.312-210.944-80.896t-75.776-151.552q5.12-54.272 51.2-96.256t118.784-62.464 156.672-12.288q128 13.312 210.944 80.896t75.776 151.552zM893.0304 259.072q0-38.912-20.48-78.848t-62.464-78.848-96.256-66.56-129.024-48.128-154.624-17.408-157.696 19.456-137.216 52.224-98.304 87.04-36.864 113.664q0 65.536 39.936 140.288t112.64 147.456q96.256 96.256 195.584 134.144t140.288-3.072q36.864-36.864 11.264-119.808-2.048-8.192 0-11.264t5.12-4.096 8.192 0 8.192 2.048l3.072 1.024q79.872 33.792 141.312 33.792t87.04-34.816q25.6-35.84 0-101.376-1.024-8.192-3.072-11.264t3.072-7.168 7.168-5.12 9.216-3.072q32.768-10.24 59.392-26.624t45.056-47.104 19.456-66.56zM851.0464 616.448q23.552-27.648 30.72-62.464t-3.072-67.584q-5.12-12.288-17.408-19.456t-25.6-2.048q-12.288 5.12-19.456 17.408t-2.048 25.6q11.264 35.84-13.312 62.464t-61.44 20.48q-13.312-3.072-25.6 4.096t-14.336 21.504q-3.072 14.336 5.12 25.6t20.48 14.336q34.816 7.168 68.608-3.072t57.344-37.888zM954.4704 709.632q49.152-55.296 64.512-128t-8.192-137.216q-5.12-16.384-19.456-23.552t-29.696-2.048-22.528 19.456-3.072 29.696q16.384 47.104 6.144 98.304t-46.08 90.112q-35.84 39.936-84.992 54.272t-98.304 5.12q-16.384-3.072-29.696 6.144t-17.408 24.576 5.12 29.696 25.6 16.384q69.632 14.336 139.264-6.144t118.784-76.8z"  horiz-adv-x="1027" />

    
    <glyph glyph-name="iconfonticonfontweizhi" unicode="&#58918;" d="M511.999009 425.445991c69.555065 0 126.19044 56.5234 126.19044 126.054683 0 69.532274-56.634384 126.052701-126.19044 126.052701-69.554075 0-126.189449-56.521419-126.189449-126.052701 0.000991-69.530292 56.635375-126.054683 126.189449-126.054683l0 0zM511.999009 627.134078c41.842834 0 75.711688-33.8857 75.711688-75.633405 0-41.748696-33.868854-75.633405-75.711688-75.633405-41.792296 0-75.710697 33.8857-75.710697 75.633405 0 41.748696 33.919391 75.633405 75.710697 75.633405l0 0zM379.402234 193.553493c1.965997-2.97575 3.931003-5.34109 5.496666-7.056383 46.241554-58.487414 92.825968-97.415936 94.846465-99.080692l32.453812-26.973992 32.309137 27.173168c2.015543 1.666737 48.455282 41.043156 94.590807 99.387879 1.567645 1.759884 3.582197 4.179725 5.552158 7.156467 65.973859 89.85319 147.99378 220.043997 166.516167 332.782619 3.58517 25.668943 3.687235 41.248278 3.687235 42.965553 0.605456 84.200949-31.49955 163.365022-90.39919 222.608513-57.040663 57.382532-132.502637 88.99703-212.45747 88.99703-79.649626 0-154.911434-31.614498-211.94417-88.992075-59.21079-59.548696-91.514973-139.119049-90.908526-223.974009 0-1.366487 0.099093-16.945822 3.535623-41.397908 19.883917-120.664047 112.457199-260.077401 166.720297-333.596169l0 0zM511.999009 831.092377c139.315253 0 253.389643-116.476394 252.377907-261.186247 0 0 0-13.109948-3.031242-34.791405-16.657463-101.349912-95.395438-226.901204-158.494622-312.615297-0.504381-1.010744-1.508189-2.02248-2.015543-2.52587-43.913869-55.967491-88.838482-93.783202-88.838482-93.783202s-44.923622 37.31133-88.838482 93.284766c-0.504381 0.497445-1.516117 1.508189-2.019507 2.519924-63.091256 85.210702-141.837159 211.265386-158.494622 312.111906-3.026288 21.682448-3.026288 34.791405-3.026288 34.791405-1.008763 144.707871 113.066618 262.195009 252.379889 262.195009l0 0zM1001.556993 625.985595l-35.278941-10.043034 0-0.116929-101.65809-29.280867c-1.010744-17.693971-1.410088-31.609543-4.792117-58.537952l106.450206 35.229394 0-552.438174-302.854678-88.359865-353.326493 102.688652-252.376916-85.039272 0 550.305702 104.4852 26.519157c-2.526861 15.122519-3.536614 31.265692-3.536614 47.399946l0 2.015543-151.427338-38.323065 0-655.482568 50.477762 17.141035 252.650412 85.138365 353.099571-102.801617 353.287847 102.872964-0.000991 630.253597 0 25.235908-15.19882-4.374938zM1001.556993 625.985595z"  horiz-adv-x="1024" />

    
    <glyph glyph-name="iconfonticonposition11" unicode="&#58919;" d="M511.998977-64.591855c-30.317493 0-348.903411 357.257683-348.903411 549.353746 0 192.0889 156.194388 347.829963 348.903411 347.829963 192.706977 0 348.906481-155.718551 348.906481-347.829963C860.904435 292.646386 540.768207-64.591855 511.998977-64.591855L511.998977-64.591855zM511.998977 787.705552c-167.83245 0-303.883055-135.651516-303.883055-302.94366 0-167.341263 295.377334-504.474606 303.883055-504.474606 3.917216 0 303.888172 337.133344 303.888172 504.474606C815.886125 652.054035 679.836543 787.705552 511.998977 787.705552L511.998977 787.705552zM511.998977 361.334791c-68.359924 0-123.805724 55.271838-123.805724 123.4271 0 68.1481 55.4458 123.421984 123.805724 123.421984 68.36811 0 123.808794-55.273884 123.808794-123.421984C635.806747 416.606629 580.366064 361.334791 511.998977 361.334791L511.998977 361.334791zM511.998977 563.302689c-43.50791 0-78.785368-35.184337-78.785368-78.540797 0-43.403532 35.276435-78.542844 78.785368-78.542844 43.513026 0 78.785368 35.139312 78.785368 78.542844C590.783321 528.118352 555.512003 563.302689 511.998977 563.302689L511.998977 563.302689z"  horiz-adv-x="1024" />

    
    <glyph glyph-name="iconfontkuaixiufuwu11" unicode="&#58920;" d="M960.473151 50.055279c-1.548262-6.984065-2.834558-14.038738-4.685719-20.941961-12.830213-47.855938-52.650127-82.763982-101.613282-89.303932-1.866511-0.249687-3.663436-1.01819-5.493108-1.545192-7.230682 0-14.46034 0-21.691021 0-0.737804 0.370437-1.449002 0.99056-2.217505 1.074472-32.172747 3.504824-57.703213 19.028379-80.298837 41.684378C641.402185 84.371852 537.844621 187.236638 434.607352 290.420695c-4.64888 4.64581-8.423857 5.950526-15.030321 3.935636-40.226167-12.265348-81.319074-15.217586-122.827443-8.499581C136.313595 311.820074 34.695197 466.611509 74.797543 624.046145c3.986801 15.651468 10.076496 30.767747 15.268752 46.367027 27.688619-25.397437 53.864792-49.469692 80.111572-73.464175 22.25077-20.341281 48.288796-30.330796 78.148871-23.813359 36.81958 8.036024 61.853743 31.159674 73.261561 66.944691 11.06194 34.700313-0.325411 64.321958-24.912389 89.825818-21.223371 22.014386-42.218544 44.246737-63.283302 66.413596-2.610454 2.746554-5.022387 5.680373-8.114818 9.197476 3.465938 1.596358 5.89629 2.816139 8.401344 3.854794 47.564295 19.717064 96.770997 25.837458 147.785881 18.48705 164.208922-23.659863 270.299169-189.912327 222.183312-348.84406-2.285043-7.546883-0.914836-11.903098 4.469801-17.256012C712.623273 357.873969 816.885895 253.748471 921.327596 149.803074c16.949021-16.868179 29.142737-36.306904 35.059494-59.529815 1.560542-6.125511 2.734274-12.348236 4.086062-18.526959C960.473151 64.515618 960.473151 57.28596 960.473151 50.055279zM152.747893 454.208015c53.733808-99.530854 176.266539-138.671293 279.598976-89.045035 7.43432 3.570315 11.273764 2.365884 16.758686-3.121084C563.2922 247.807155 677.668157 133.762749 792.051277 19.724483c24.932856-24.857131 60.536748-27.074635 85.704964-5.552459 25.808806 22.069645 28.600385 61.160965 6.132674 86.60752-2.755764 3.122107-5.763261 6.02625-8.714476 8.970302C762.0111 222.649172 648.844691 335.545428 535.642466 448.404846c-2.349511 2.342348-5.136997 4.246721-7.277754 5.993504 39.074947 84.259032 35.503609 163.759691-22.011316 236.833987-40.496319 51.450812-95.824439 75.129094-162.949232 77.895091 33.503045-38.972617 47.260373-82.07325 39.039131-131.085524-5.807263-34.621519-22.499433-63.561641-48.521087-87.146802-50.299593-45.591361-138.071635-57.196677-206.309786 2.155083C128.372739 517.026736 136.38318 484.521414 152.747893 454.208015z"  horiz-adv-x="1024" />

    
    <glyph glyph-name="iconfontleft1" unicode="&#58921;" d="M53.345975 843.70189l0-919.402757 917.308049 0L970.654025 843.70189 53.345975 843.70189zM673.305803 80.419843c-10.072403-10.146081-26.457582-10.224876-36.632315-0.12996L350.867136 363.49806c-5.100158 5.047969-7.66354 11.727089-7.66354 18.377556 0 6.572696 2.512217 13.177114 7.507998 18.225083 0.105401 0.100284 0.23536 0.124843 0.336668 0.231267 0.414439 0.438998 0.517793 1.006933 0.956791 1.450025l283.219433 285.796118c10.07138 10.147104 26.456558 10.224876 36.632315 0.153496 10.147104-10.094916 10.222829-26.455535 0.153496-36.626175L405.513734 382.211261l267.633457-265.193895c10.146081-10.067286 10.19827-26.427906 0.157589-36.597523L673.305803 80.419843z"  horiz-adv-x="1024" />

    
    <glyph glyph-name="iconfontleft" unicode="&#58922;" d="M241.501091 404.782545 721.570909 884.852364c10.914909 11.031273 28.904727 11.031273 39.959273 0 11.031273-11.054545 11.031273-29.021091 0-40.005818L300.683636 384l460.846545-460.846545c11.031273-11.054545 11.031273-28.951273 0-40.005818-11.054545-11.054545-29.044364-11.054545-39.959273 0L241.501091 363.170909c-5.748364 5.701818-8.331636 13.312-8.122182 20.829091C233.169455 391.517091 235.776 399.080727 241.501091 404.782545"  horiz-adv-x="1024" />

    
    <glyph glyph-name="iconfontlist" unicode="&#58923;" d="M921.6 657.067l-307.2 0c-18.876 0-34.133 15.292-34.133 34.133s15.258 34.133 34.133 34.133l307.2 0c18.876 0 34.133-15.292 34.133-34.133s-15.258-34.133-34.133-34.133zM921.6 486.4l-307.2 0c-18.876 0-34.133 15.292-34.133 34.133s15.258 34.133 34.133 34.133l307.2 0c18.876 0 34.133-15.292 34.133-34.133s-15.258-34.133-34.133-34.133zM921.6 213.333l-307.2 0c-18.876 0-34.133 15.258-34.133 34.133s15.258 34.133 34.133 34.133l307.2 0c18.876 0 34.133-15.258 34.133-34.133s-15.258-34.133-34.133-34.133zM921.6 42.667l-307.2 0c-18.876 0-34.133 15.258-34.133 34.133s15.258 34.133 34.133 34.133l307.2 0c18.876 0 34.133-15.258 34.133-34.133s-15.258-34.133-34.133-34.133zM375.467 418.133l-204.8 0c-56.457 0-102.4 45.943-102.4 102.4l0 204.8c0 56.457 45.943 102.4 102.4 102.4l204.8 0c56.457 0 102.4-45.943 102.4-102.4l0-204.8c0-56.457-45.943-102.4-102.4-102.4zM170.667 759.467c-18.807 0-34.133-15.326-34.133-34.133l0-204.8c0-18.807 15.326-34.133 34.133-34.133l204.8 0c18.807 0 34.133 15.326 34.133 34.133l0 204.8c0 18.807-15.326 34.133-34.133 34.133l-204.8 0zM375.467-59.733l-204.8 0c-56.457 0-102.4 45.943-102.4 102.4l0 204.8c0 56.457 45.943 102.4 102.4 102.4l204.8 0c56.457 0 102.4-45.943 102.4-102.4l0-204.8c0-56.457-45.943-102.4-102.4-102.4zM170.667 281.6c-18.807 0-34.133-15.292-34.133-34.133l0-204.8c0-18.842 15.326-34.133 34.133-34.133l204.8 0c18.807 0 34.133 15.292 34.133 34.133l0 204.8c0 18.842-15.326 34.133-34.133 34.133l-204.8 0z"  horiz-adv-x="1024" />

    
    <glyph glyph-name="iconfontphonebook" unicode="&#58924;" d="M603.685677 363.388567c47.845705 20.710694 81.445964 68.303642 81.445964 123.654274 0 74.28589-60.438511 134.75203-134.75203 134.75203S415.627581 561.328731 415.627581 487.042841c0-55.343469 33.593096-102.929254 81.429591-123.644041-87.86107-20.720927-158.357658-90.641393-175.933965-182.246741-2.294252-11.984962 5.560646-23.592324 17.573237-25.859971 12.012591-2.321882 23.565718 5.560646 25.886577 17.545608 17.032932 88.808652 95.152127 153.215544 185.742355 153.215544 90.914616 0 169.087023-64.677045 185.877431-153.863297 1.997494-10.635221 11.282974-18.031679 21.702278-18.031679 1.349741 0 2.726088 0.161682 4.130064 0.3776 11.984962 2.267647 19.894096 13.875009 17.626449 25.859971C762.32986 272.38697 691.805644 342.604194 603.685677 363.388567zM459.843618 487.042841c0 49.884131 40.625256 90.481757 90.535993 90.481757s90.535993-40.597627 90.535993-90.481757-40.625256-90.481757-90.535993-90.481757S459.843618 437.15871 459.843618 487.042841zM782.558577 830.893166 232.259296 830.893166c-64.993247 0-117.680213-52.686966-117.680213-117.680213l0-658.425907c0-64.993247 52.686966-117.680213 117.680213-117.680213l550.300304 0c64.993247 0 117.680213 52.686966 117.680213 117.680213l0 658.425907C900.23879 778.2062 847.551824 830.893166 782.558577 830.893166zM862.376461 54.787046c0-44.011376-35.805484-79.817883-79.817883-79.817883L232.259296-25.030837c-44.011376 0-79.817883 35.806507-79.817883 79.817883l0 93.442182 57.517995 0c6.186909-9.468652 16.874319-15.731286 29.030174-15.731286 19.144012 0 34.662451 15.518438 34.662451 34.662451 0 19.144012-15.519462 34.662451-34.662451 34.662451-12.154831 0-22.842241-6.261611-29.030174-15.731286l-57.516971 0 0 183.64253 57.534368 0c6.189979-9.454326 16.869203-15.70468 29.013801-15.70468 19.144012 0 34.662451 15.518438 34.662451 34.662451 0 19.144012-15.519462 34.662451-34.662451 34.662451-12.166087 0-22.861684-6.27389-29.046546-15.756869l-57.500599 0L152.443459 591.237925l57.629535 0c6.204305-9.371438 16.83748-15.556301 28.91761-15.556301 19.144012 0 34.662451 15.518438 34.662451 34.662451 0 19.144012-15.519462 34.662451-34.662451 34.662451-12.229532 0-22.972201-6.339382-29.142737-15.906272l-57.405431 0 0 84.1127c0 44.011376 35.806507 79.817883 79.817883 79.817883l550.300304 0c44.0124 0 79.817883-35.806507 79.817883-79.817883L862.378507 54.787046z"  horiz-adv-x="1024" />

    
    <glyph glyph-name="iconfontqm" unicode="&#58925;" d="M819.781852 32.237471 599.938841 32.237471c-24.289196 0-43.971467 19.686365-43.971467 43.968397L555.967374 296.061159c0 24.281009 19.683295 43.968397 43.971467 43.968397l219.848127 0c24.281009 0 43.971467-19.687388 43.971467-43.968397L863.758436 76.205868C863.758436 51.924859 844.066955 32.237471 819.781852 32.237471L819.781852 32.237471zM808.483528 284.761811 611.238189 284.761811l0-197.255573 197.24841 0L808.486598 284.761811 808.483528 284.761811zM819.781852 427.971467 599.938841 427.971467c-24.289196 0-43.971467 19.686365-43.971467 43.968397L555.967374 691.794132c0 24.281009 19.683295 43.968397 43.971467 43.968397l219.848127 0c24.281009 0 43.971467-19.686365 43.971467-43.968397L863.758436 471.938841C863.758436 447.657832 844.066955 427.971467 819.781852 427.971467L819.781852 427.971467zM808.483528 680.494785 611.238189 680.494785l0-197.255573 197.24841 0L808.486598 680.494785 808.483528 680.494785zM424.061159 32.237471 204.212008 32.237471c-24.285103 0-43.970444 19.686365-43.970444 43.968397L160.241564 296.061159c0 24.281009 19.686365 43.968397 43.970444 43.968397l219.848127 0c24.281009 0 43.967374-19.687388 43.967374-43.968397L468.027509 76.205868C468.027509 51.924859 448.342168 32.237471 424.061159 32.237471L424.061159 32.237471zM412.760788 284.760788 215.512379 284.760788l0-197.254549 197.24841 0L412.760788 284.760788 412.760788 284.760788zM424.061159 427.971467 204.212008 427.971467c-24.285103 0-43.970444 19.686365-43.970444 43.968397L160.241564 691.794132c0 24.281009 19.686365 43.968397 43.970444 43.968397l219.848127 0c24.281009 0 43.967374-19.686365 43.967374-43.968397L468.027509 471.938841C468.027509 447.657832 448.342168 427.971467 424.061159 427.971467L424.061159 427.971467zM412.760788 680.493761 215.512379 680.493761l0-197.254549 197.24841 0L412.760788 680.493761 412.760788 680.493761z"  horiz-adv-x="1024" />

    
    <glyph glyph-name="iconfontright1" unicode="&#58926;" d="M53.345975 843.70189l0-919.402757 917.308049 0L970.654025 843.70189 53.345975 843.70189zM350.695221 80.419843c-10.041704 10.169617-9.988492 26.530236 0.157589 36.597523l267.633457 265.193895L351.990726 651.105431c-10.069333 10.17064-9.993608 26.53126 0.153496 36.626175 10.175757 10.070356 26.559912 9.993608 36.632315-0.153496L671.994947 401.780969c0.438998-0.442068 0.541329-1.011027 0.956791-1.450025 0.101307-0.106424 0.231267-0.130983 0.336668-0.231267 4.995781-5.047969 7.507998-11.652388 7.507998-18.225083 0-6.65149-2.563382-13.33061-7.66354-18.377556L387.325489 80.289883c-10.174734-10.094916-26.559912-10.016121-36.632315 0.12996L350.695221 80.419843z"  horiz-adv-x="1024" />

    
    <glyph glyph-name="iconfontright" unicode="&#58927;" d="M759.875001 360.360996 279.833911-119.726639c-10.938058-11.031147-28.927671-11.031147-39.982091 0-11.007875 11.077692-11.007875 29.044034 0 40.005364l460.841309 460.864581L239.85182 841.984614c-11.007875 11.031147-11.007875 28.950944 0 40.005364 11.05442 11.031147 29.044034 11.031147 39.982091 0l480.04109-480.017818c5.725026-5.701753 8.308269-13.311849 8.098817-20.828854C768.206543 373.6263 765.600027 366.062749 759.875001 360.360996"  horiz-adv-x="1024" />

    
    <glyph glyph-name="iconfontsocialgoogle" unicode="&#58928;" d="M651.724 344.884l-36.374 27.306-0.126 0.102c-11.654 9.158-19.904 16.626-19.904 29.37 0 13.958 10.098 23.648 21.792 34.872l0.932 0.898c40.05 30.342 89.452 68.572 89.452 149.112 0 53.868-23.832 89.458-46.56 115.458l25.938 0 120.644 66L540.616 768.002c-50.648 0-125.36-6.45-189.122-57.152l-0.256-0.5c-43.618-36.222-69.656-89.168-69.656-141.382 0-42.394 17.412-84.318 47.77-114.894 42.856-43.158 96.604-52.254 134.148-52.254 2.924 0 5.912 0.056 8.94 0.186-1.518-5.938-2.5-12.642-2.5-20.642 0-21.852 7.256-38.602 16.166-52.39-47.926-3.864-116.296-12.954-169.794-44.556-78.67-45.124-84.792-111.75-84.792-131.102 0-76.414 71.414-153.524 230.958-153.524 183.222 0 279.086 99.584 279.086 197.958C741.562 272.068 695.89 309.086 651.724 344.884zM400.97 616.212c0 26.718 6.04 46.914 18.51 61.8 13.028 15.704 36.36 26.258 58.056 26.258 39.762 0 65.876-30.016 80.776-55.196 18.398-31.078 29.826-72.19 29.826-107.286 0-9.884 0-39.966-20.376-59.592-13.902-13.372-37.414-22.706-57.18-22.706-41.006 0-66.906 29.41-81.414 54.082C408.378 548.94 400.97 589.782 400.97 616.212zM643.2 160.052c0-54.888-50.424-88.986-131.598-88.986-96.116 0-160.694 41.206-160.694 102.53 0 52.28 43.08 73.578 75.6 85.042 37.888 12.128 88.594 14.61 100.124 14.61 7.814 0 12.174 0 17.366-0.458C617.4 222.368 643.2 200.534 643.2 160.052z"  horiz-adv-x="1024" />

    
    <glyph glyph-name="iconfontsocialgoogleoutline" unicode="&#58929;" d="M638.816 731.718c23.558-19.152 72.86-59.436 72.86-136.086 0-74.59-43.094-109.868-86.188-143.09-13.39-13.122-28.77-27.216-28.77-49.402 0-22.184 15.378-34.306 26.672-43.342l36.946-28.216c45.196-37.282 86.25-71.59 86.25-141.118 0-94.746-93.442-190.464-270.006-190.464-148.856 0-220.686 69.532-220.686 144.122 0 36.278 18.49 87.654 79.05 122.96 63.596 38.284 149.904 43.314 196.046 46.344-14.356 18.156-30.764 37.34-30.764 68.53 0 17.154 5.114 27.218 10.24 39.31-11.296-1-22.566-2-32.84-2-108.816 0-170.428 79.622-170.428 158.214 0 46.372 21.604 97.804 65.712 135.086C431.448 759.938 501.274 768 556.656 768l211.45 0-65.692-36.282L638.816 731.718zM565.91 284.208c-8.274 1.002-13.368 1.002-23.586 1.002-9.258 0-64.696-2.004-107.79-16.098-22.6-8.092-88.292-32.25-88.292-103.836 0-71.56 70.786-122.934 180.678-122.934 98.566 0 150.864 46.312 150.864 108.808C677.786 202.586 643.942 229.774 565.91 284.208M595.668 475.704c23.648 23.184 25.688 55.46 25.688 73.586 0 72.562-44.172 185.46-129.342 185.46-26.678 0-55.448-13.094-71.896-33.278-17.444-21.186-22.568-48.376-22.568-74.562 0-67.528 40.01-179.454 128.326-179.454C551.528 447.458 579.188 459.576 595.668 475.704"  horiz-adv-x="1024" />

    
    <glyph glyph-name="iconfontsocialgoogleplus" unicode="&#58930;" d="M484.2 344.8l-36.4 27.4-0.2 0.2c-11.6 9.2-20 16.6-20 29.4 0 14 10 23.6 21.8 34.8l1 0.8c40 30.4 89.4 68.6 89.4 149.2 0 53.8-23.8 89.4-46.6 115.4l26 0L640 768 373 768c-50.6 0-125.4-6.4-189.2-57.2l-0.2-0.6C140 674.2 114 621.2 114 569c0-42.4 17.4-84.4 47.8-114.8 42.8-43.2 96.6-52.2 134.2-52.2 3 0 6 0 9 0.2-1.6-6-2.4-12.6-2.4-20.6 0-21.8 7.2-38.6 16.2-52.4-48-3.8-116.2-13-169.8-44.6C70.2 239.2 64 172.6 64 153.4c0-76.4 71.4-153.6 231-153.6 183.2 0 279 99.6 279 198C574 272 528.4 309 484.2 344.8zM233.4 616.2c0 26.8 6 47 18.6 61.8 13 15.8 36.4 26.2 58 26.2 39.8 0 65.8-30 80.8-55.2 18.4-31 29.8-72.2 29.8-107.2 0-9.8 0-40-20.4-59.6-14-13.4-37.4-22.8-57.2-22.8-41 0-67 29.4-81.4 54C240.8 549 233.4 589.8 233.4 616.2zM475.6 160c0-54.8-50.4-89-131.6-89-96.2 0-160.6 41.2-160.6 102.6 0 52.2 43 73.6 75.6 85 37.8 12.2 88.6 14.6 100.2 14.6 7.8 0 12.2 0 17.4-0.4C449.8 222.4 475.6 200.6 475.6 160zM804 612 804 768 736 768 736 612 576 612 576 544 736 544 736 382 804 382 804 544 960 544 960 612Z"  horiz-adv-x="1024" />

    
    <glyph glyph-name="iconfontsocialgoogleplusoutline" unicode="&#58931;" d="M447 731.8c23.6-19.2 72.8-59.4 72.8-136 0-74.6-43-109.8-86.2-143-13.4-13.2-28.8-27.2-28.8-49.4 0-22.2 15.4-34.4 26.6-43.4l37-28.2c45.2-37.2 86.2-71.6 86.2-141.2 0-94.8-93.4-190.4-270-190.4C135.8 0 64 69.6 64 144.2c0 36.2 18.4 87.6 79 123 63.6 38.2 150 43.4 196 46.4-14.4 18.2-30.8 37.4-30.8 68.6 0 17.2 5.2 27.2 10.2 39.4-11.2-1-22.6-2-32.8-2-108.8 0-170.4 79.6-170.4 158.2 0 46.4 21.6 97.8 65.8 135C239.6 760 309.4 768 364.8 768l211.4 0-65.6-36.2L447 731.8zM374 284.2c-8.2 1-13.4 1-23.6 1-9.2 0-64.6-2-107.8-16-22.6-8-88.2-32.2-88.2-103.8 0-71.6 70.8-123 180.6-123 98.6 0 150.8 46.4 150.8 108.8C485.8 202.6 452 229.8 374 284.2M403.8 475.8c23.6 23.2 25.6 55.4 25.6 73.6 0 72.6-44.2 185.4-129.4 185.4-26.6 0-55.4-13-71.8-33.2-17.4-21.2-22.6-48.4-22.6-74.6 0-67.6 40-179.4 128.4-179.4C359.6 447.4 387.2 459.6 403.8 475.8M960 611.4 803.4 611.4 803.4 767.8 768 767.8 768 611.4 608.6 611.4 608.6 575.8 768 575.8 768 414 803.4 414 803.4 575.8 960 575.8Z"  horiz-adv-x="1024" />

    
    <glyph glyph-name="iconfontsocialjavascript" unicode="&#58934;" d="M416 719.998l-160 0 0-424.996c0-105.16-36.064-134.522-98.824-134.522-29.41 0-55.896 5.042-76.5 12.126L64 48.192c29.4-10.124 74.518-16.192 109.814-16.192C317.91 32 416 99.742 416 293.96L416 719.998 416 719.998zM764.926 736C610.04 736 512 648.004 512 531.692c0-100.166 75.502-162.88 185.282-203.33 79.4-28.316 110.784-53.616 110.784-95.078 0-45.512-36.278-74.85-104.896-74.85-63.726 0-121.578 21.28-160.788 42.51l0 0.042L512 74.546c37.278-21.276 106.882-42.51 182.334-42.51C875.708 32.04 960 129.14 960 243.432c0 97.1-53.916 159.8-170.556 204.326-86.278 34.382-122.54 53.59-122.54 97.084 0 34.4 31.376 65.738 96.086 65.738 63.692 0 107.488-21.414 133.01-34.582l38.25 128C894.25 721.56 840.376 736 764.926 736L764.926 736z"  horiz-adv-x="1024" />

    
    <glyph glyph-name="iconfontsocialhtml5" unicode="&#58935;" d="M128 832l69.872-806.426L511.538-64l314.49 89.708L896 832 128 832zM743.994 568l-368 0 7.982-102 352.016 0-27.01-302.772-197-56.188-197.364 55.952L301.09 318l96.508 0 6.846-78.574 107.538-29.562 106.844 29.83L629.974 368 295.972 368l-25.142 299.178 481.578-0.032L743.994 568z"  horiz-adv-x="1024" />

    
    <glyph glyph-name="iconfontsocialhtml5outline" unicode="&#58936;" d="M128 832l69.872-806.602L511.538-64l314.49 89.41L896 832 128 832zM766.082 74.98l-254.524-72.374-253.734 72.338L197.792 768 826.2 768 766.082 74.98zM295.982 368 629.968 368 618.822 240.028 511.982 210.532 404.45 239.872 397.602 318 301.1 318 314.626 163.328 511.982 107.708 708.972 163.674 735.982 466 383.982 466 376 568 743.982 568 752.398 667.368 270.842 667.624Z"  horiz-adv-x="1024" />

    
    <glyph glyph-name="iconfontsocialjavascript1" unicode="&#58937;" d="M416 719.998l-160 0 0-424.996c0-105.16-36.064-134.522-98.824-134.522-29.41 0-55.896 5.042-76.5 12.126L64 48.192c29.4-10.124 74.518-16.192 109.814-16.192C317.91 32 416 99.742 416 293.96L416 719.998 416 719.998zM764.926 736C610.04 736 512 648.004 512 531.692c0-100.166 75.502-162.88 185.282-203.33 79.4-28.316 110.784-53.616 110.784-95.078 0-45.512-36.278-74.85-104.896-74.85-63.726 0-121.578 21.28-160.788 42.51l0 0.042L512 74.546c37.278-21.276 106.882-42.51 182.334-42.51C875.708 32.04 960 129.14 960 243.432c0 97.1-53.916 159.8-170.556 204.326-86.278 34.382-122.54 53.59-122.54 97.084 0 34.4 31.376 65.738 96.086 65.738 63.692 0 107.488-21.414 133.01-34.582l38.25 128C894.25 721.56 840.376 736 764.926 736L764.926 736z"  horiz-adv-x="1024" />

    
    <glyph glyph-name="iconfontsocialjavascriptoutline" unicode="&#58938;" d="M384 687.998l0-394.034c0-83.134-19.288-143.976-57.324-180.834-34.12-33.06-84.122-49.13-152.862-49.13-24.004 0-51.56 2.992-74.37 7.772l8.18 61.01c14.292-2.538 30.93-4.298 49.548-4.298 43.84 0 75.784 12.918 97.654 39.49C277.46 195.464 288 235.83 288 295.002L288 687.998 384 687.998M416 719.998l-160 0 0-424.996c0-105.16-36.064-134.522-98.824-134.522-29.41 0-55.896 5.042-76.5 12.126L64 48.192c29.4-10.124 74.518-16.192 109.814-16.192C317.91 32 416 99.742 416 293.96L416 719.998 416 719.998zM764.926 704c48.916 0 91.796-6.292 130.2-19.17l-19.162-64.124C848.74 631.716 810.892 642.58 762.992 642.58c-37.214 0-68.924-9.168-91.698-26.512-23.464-17.872-36.388-43.166-36.388-71.226 0-69.948 66.124-96.298 142.694-126.81l0.214-0.086 0.216-0.082c53.954-20.598 91.876-44.522 115.938-73.144C917.186 317.098 928 284.914 928 243.432c0-50.354-18.666-93.42-53.98-124.548C833.32 83.006 771.186 64.04 694.334 64.04c-56.104 0-109.396 12.854-145.23 27.958l15.186 63.206c35.158-14.496 83.764-28.764 138.876-28.764 40.56 0 73.258 8.956 97.182 26.612 25.614 18.9 39.714 47.394 39.714 80.238 0 30.696-12.082 55.844-36.938 76.888-20.314 17.206-49.602 32.096-94.934 48.272-53.72 19.808-94.718 43.894-121.868 71.59C557.844 459.09 544 492.342 544 531.692c0 48.298 19.662 90.202 56.86 121.182C641.02 686.322 697.752 704 764.926 704M764.926 736C610.04 736 512 648.004 512 531.692c0-100.166 75.502-162.88 185.282-203.33 79.4-28.316 110.784-53.616 110.784-95.078 0-45.512-36.278-74.85-104.896-74.85-63.726 0-121.578 21.28-160.788 42.51l0 0.042L512 74.546c37.278-21.276 106.882-42.51 182.334-42.51C875.708 32.04 960 129.14 960 243.432c0 97.1-53.916 159.8-170.556 204.326-86.278 34.382-122.54 53.59-122.54 97.084 0 34.4 31.376 65.738 96.086 65.738 63.692 0 107.488-21.414 133.01-34.582l38.25 128C894.25 721.56 840.376 736 764.926 736L764.926 736z"  horiz-adv-x="1024" />

    
    <glyph glyph-name="iconfontsocialtumblr" unicode="&#58939;" d="M642.4 103.4c-23.6 0-44.8 5.6-63 16.6-13.8 8.2-23 19.2-28 32.8-5.2 13.8-7.2 44.6-7.2 92.8L544.2 448l192 0 0 128-192 0L544.2 800l-123.8 0c-5.4-43-15-89.4-29-117.2-14-27.8-28-51.6-51.2-71.4-23.2-19.8-51.2-35.8-83.8-46.6L256.4 448l96 0 0-280.8c0-38 4-67 11.8-87 8-20 22.2-39 42.8-56.8 20.6-17.8 45.6-31.4 74.6-41 29.2-9.6 62.8-14.4 100.8-14.4 33.4 0 60.6 3.4 89.4 10.2 28.8 6.8 61 18.6 96.4 35.2l0 131.2C726.4 117.2 684.6 103.4 642.4 103.4z"  horiz-adv-x="1024" />

    
    <glyph glyph-name="iconfontsocialtumblroutline" unicode="&#58940;" d="M642.4 103.4c-23.6 0-44.8 5.6-63 16.6-13.8 8.2-23 19.2-28 32.8-5.2 13.8-7.2 44.6-7.2 92.8L544.2 448l192 0 0 128-192 0L544.2 800l-123.8 0c-5.4-43-15-89.4-29-117.2s-28-51.6-51.2-71.4c-23.2-19.8-51.2-35.8-83.8-46.6L256.4 448l96 0 0-280.8c0-38 4-67 11.8-87 8-20 22.2-39 42.8-56.8 20.6-17.8 45.6-31.4 74.6-41 29.2-9.6 62.8-14.4 100.8-14.4 33.4 0 60.6 3.4 89.4 10.2 28.8 6.8 61 18.6 96.4 35.2l0 131.2C726.4 117.2 684.6 103.4 642.4 103.4zM736 34c-26.2-11.4-50.2-19.8-71.8-24.8-26.2-6.2-51.2-9.2-82.2-9.2-34.4 0-65 4.4-90.8 12.8-25 8.2-46.4 20-63.8 35-16.6 14.4-28 29.2-34 44.4-4.4 11-9.6 33.2-9.6 75.2L383.8 480 288 480l0 62.6c26.8 11.2 51 26 72.6 44.4 26.4 22.4 43.2 49.8 59.2 81.4 14.2 28 23.2 68 28.2 99.6l64 0 0-224 192 0 0-64-192 0 0-234.2c0-69.2 4.8-92 9.2-104 7.6-20.6 21.6-37.2 42-49.2 23.4-14 50-21 79.4-21 31.4 0 62.6 6.6 93.4 19.6L736 34z"  horiz-adv-x="1024" />

    
    <glyph glyph-name="iconfontstar" unicode="&#58941;" d="M785.352203-37.397493c-4.074805 0-8.151657 0.970094-11.833513 3.007497l-261.311471 142.488225L250.942821-34.388972c-8.343015-4.559852-18.527982-3.8814-26.28669 1.599428-7.760754 5.5279-11.640108 14.987343-10.088776 24.347524l47.578622 285.365306L72.563154 466.529645c-6.594185 6.547113-8.971325 16.295128-6.110161 25.122167 2.814092 8.850575 10.379395 15.397688 19.546172 16.949021l285.512662 47.577598 118.529557 236.989529c4.172019 8.391111 12.803607 13.701047 22.165836 13.701047 9.359158 0 17.992793-5.309936 22.163789-13.701047l118.529557-236.989529 285.511639-47.577598c9.217942-1.551332 16.73208-8.051373 19.593244-16.949021 2.813069-8.875135 0.48607-18.575054-6.109138-25.122167L762.264369 276.922263l47.577598-285.365306c1.50119-9.360182-2.37714-18.819624-10.087753-24.347524C795.487028-35.797042 790.394033-37.397493 785.352203-37.397493zM512.206196 161.252847c4.073782 0 8.196683-0.968048 11.880585-3.006474l228.379431-124.545574-41.268916 247.634983c-1.308809 7.90504 1.257643 16.005532 6.932899 21.63167l164.55787 164.555823-250.398934 41.709961c-7.855922 1.308809-14.549368 6.304589-18.140149 13.408381l-101.942787 203.915249-101.991905-203.915249c-3.542686-7.103792-10.234085-12.050454-18.09103-13.408381l-250.40098-41.709961 164.509774-164.555823c5.672186-5.626137 8.244778-13.675464 6.983041-21.63167l-41.273009-247.634983 228.380454 124.545574C504.058632 160.284799 508.132414 161.252847 512.206196 161.252847z"  horiz-adv-x="1024" />

    
    <glyph glyph-name="iconfonttrash" unicode="&#58942;" d="M780.82612 743.999121 623.645265 743.999121l0 22.454408c0 37.144992-30.217209 67.3622-67.363224 67.3622l-89.816608 0c-37.147038 0-67.364247-30.217209-67.364247-67.3622l0-22.454408L241.9234 743.999121c-37.146015 0-67.364247-30.217209-67.364247-67.3622l0-44.908816c0-29.29521 18.772552-54.249555 44.909839-63.503313l0-565.212946c0-37.149085 30.217209-67.364247 67.361177-67.364247l449.086112 0c37.147038 0 67.363224 30.215162 67.363224 67.364247l0 565.212946c26.13831 9.253758 44.905746 34.208103 44.905746 63.503313l0 44.908816C848.18525 713.781912 817.969065 743.999121 780.82612 743.999121zM444.010001 766.454552c0 12.367679 10.04375 22.454408 22.454408 22.454408l89.816608 0c12.366655 0 22.452361-10.086729 22.452361-22.454408l0-22.454408L444.010001 744.000144 444.010001 766.454552zM735.916281-19.443585 286.830169-19.443585c-12.410658 0-22.452361 10.085706-22.452361 22.455431L264.377808 564.364881l493.990834 0 0-561.353035C758.368642-9.357879 748.282936-19.443585 735.916281-19.443585zM803.279504 631.728104c0-12.366655-10.088776-22.454408-22.453385-22.454408L241.9234 609.273696c-12.411681 0-22.454408 10.086729-22.454408 22.454408l0 44.908816c0 12.367679 10.041704 22.452361 22.454408 22.452361l538.90272 0c12.364609 0 22.453385-10.084683 22.453385-22.452361L803.279504 631.728104zM646.098649 519.457088c-12.368702 0-22.452361-10.085706-22.452361-22.455431l0-449.086112c0-12.364609 10.083659-22.453385 22.452361-22.453385 12.367679 0 22.453385 10.088776 22.453385 22.453385L668.552034 497.001657C668.552034 509.371382 658.466328 519.457088 646.098649 519.457088zM511.375272 519.457088c-12.413727 0-22.455431-10.085706-22.455431-22.455431l0-449.086112c0-12.364609 10.041704-22.453385 22.455431-22.453385 12.409634 0 22.451338 10.088776 22.451338 22.453385L533.82661 497.001657C533.82661 509.371382 523.783883 519.457088 511.375272 519.457088zM376.647801 519.457088c-12.411681 0-22.454408-10.085706-22.454408-22.455431l0-449.086112c0-12.364609 10.041704-22.453385 22.454408-22.453385 12.410658 0 22.452361 10.088776 22.452361 22.453385L399.100162 497.001657C399.101185 509.371382 389.059482 519.457088 376.647801 519.457088z"  horiz-adv-x="1024" />

    
    <glyph glyph-name="iconfontup" unicode="&#58943;" d="M491.217455 663.598545 11.147636 183.552c-11.031273-10.914909-11.031273-28.904727 0-39.959273 11.054545-11.031273 29.021091-11.031273 40.005818 0L512 604.439273 972.869818 143.592727c11.031273-11.031273 28.928-11.031273 40.005818 0 11.031273 11.054545 11.031273 29.044364 0 39.959273L532.829091 663.598545C527.127273 669.346909 519.517091 671.953455 512 671.720727 504.482909 671.953455 496.919273 669.346909 491.217455 663.598545"  horiz-adv-x="1024" />

    
    <glyph glyph-name="iconfontzaixiankefu11" unicode="&#58944;" d="M741.727232 51.862c17.036288-14.362 23.862272-7.909 28.09344 11.516l-30.461952 105.245 155.780096 0c43.420672 0 78.598144 34.344 78.598144 76.745L973.73696 695.046c0 42.401-35.177472 76.749-78.598144 76.749l-766.27968-0.004c-43.428864 0-78.594048-34.344-78.594048-76.745l0-449.678 0.001024 0c0-42.401 35.165184-76.745 78.594048-76.745L584.66304 168.623M236.747776 466.022c0 33.672 27.984896 61.011 62.477312 61.011 34.481152 0 62.477312-27.338 62.477312-61.011 0-33.683-27.99616-61.011-62.477312-61.011C264.731648 405.012 236.747776 432.339 236.747776 466.022zM461.661184 466.022c0 33.672 27.984896 61.011 62.476288 61.011 34.492416 0 62.477312-27.338 62.477312-61.011 0-33.683-27.984896-61.011-62.477312-61.011C489.645056 405.012 461.661184 432.339 461.661184 466.022zM686.572544 466.022c0 33.672 27.995136 61.011 62.478336 61.011 34.492416 0 62.476288-27.338 62.476288-61.011 0-33.683-27.983872-61.011-62.476288-61.011C714.56768 405.012 686.572544 432.339 686.572544 466.022z"  horiz-adv-x="1024" />

    
    <glyph glyph-name="gengduo" unicode="&#58898;" d="M992 384a480 480 0 1 1-960 0 480 480 0 0 1 960 0z m-896 0a416 416 0 1 0 832 0 416 416 0 0 0-832 0zM672 352a32 32 0 1 1 0 64h-384a32 32 0 0 1 0-64h384zM682.048 368.512l-0.896 45.312-192.192-199.68a32 32 0 0 1 46.08-44.352l192.192 199.68a32 32 0 0 1-0.896 45.248L534.144 599.04a32 32 0 0 1-44.288-46.08l192.192-184.448z"  horiz-adv-x="1024" />

    
    <glyph glyph-name="game-gift-active" unicode="&#59077;" d="M938.816 606.464h-56.192c94.208 144.576-30.336 220.352-30.336 220.352-143.872 59.008-202.24-50.496-225.664-136.32h-118.336c-26.688 111.424-132.608 142.464-132.608 142.464-107.904 30.336-163.072-55.040-176.768-80.448-1.792-3.328-15.744-30.528-22.016-42.752-98.752 11.072-176.896-56.96-176.896-56.96l38.080-34.112c120.192 84.032 216.896 15.872 248.512-12.224h-115.392c-47.040 0-85.12-38.528-85.12-86.080v-145.856h436.736v239.872c0 18.539 15.029 33.568 33.568 33.568s33.568-15.029 33.568-33.568v-239.872h434.048v145.856c0 47.552-38.208 86.080-85.184 86.080zM450.752 606.464h-85.888c-35.52 49.6-98.24 77.504-134.272 90.176l19.136 36.608c32.384 50.176 85.76 47.872 85.76 47.872 136.384-26.368 115.264-174.656 115.264-174.656zM811.584 606.464h-136.128c29.696 217.792 141.696 166.080 141.696 166.080 83.712-49.152 15.68-140.8-5.568-166.080zM152.192 9.728c0-47.104 38.208-85.312 85.312-85.312h285.248v406.528h-370.56v-321.216zM589.952-75.584h285.184c47.104 0 85.312 38.208 85.312 85.312v321.216h-370.496v-406.528z"  horiz-adv-x="1024" />

    
    <glyph glyph-name="play" unicode="&#58881;" d="M90.624 795.557972C90.624 887.697816 154.098115 922.506202 231.905095 874.388727l642.931359-401.320211c77.80698-49.14125 77.80698-128.995782 0-177.113256L231.905095-106.388727C154.098115-154.506202 90.624-119.697816 90.624-27.557972V795.557972z"  horiz-adv-x="1024" />

    
    <glyph glyph-name="xuangoushouji" unicode="&#58882;" d="M392.533 234.667h-72.533v405.333h264.533c0 0 0-8.533 0-8.533h21.333l0 68.267c0 12.8-4.267 21.333-17.067 21.333l-273.067 0c-12.8 0-17.067-8.533-17.067-21.333v-537.6c0-12.8 4.267-21.333 17.067-21.333h76.8l-0 93.867zM725.333 593.067h-273.067c-12.8 0-17.067-12.8-17.067-21.333v-537.6c0-12.8 4.267-21.333 17.067-21.333l273.067-0c12.8 0 17.067 12.8 17.067 21.333l-0 537.6c0 8.533-8.533 21.333-17.067 21.333zM618.667 38.4h-64c-12.8 0-21.333 8.533-21.333 21.333s8.533 21.333 21.333 21.333h64c12.8 0 21.333-8.533 21.333-21.333s-8.533-21.333-21.333-21.333zM721.067 102.4h-264.533l-0 409.6h264.533l0-409.6z"  horiz-adv-x="1024" />

    
    <glyph glyph-name="cart" unicode="&#58880;" d="M332.8 105.47199999999998q19.456 0 36.864-7.168t30.208-19.968 20.48-30.208 7.68-36.864-7.68-36.864-20.48-30.208-30.208-20.48-36.864-7.68q-20.48 0-37.888 7.68t-30.208 20.48-20.48 30.208-7.68 36.864 7.68 36.864 20.48 30.208 30.208 19.968 37.888 7.168zM758.784 103.42399999999998q19.456 0 37.376-7.168t30.72-19.968 20.48-30.208 7.68-36.864-7.68-36.864-20.48-30.208-30.72-20.48-37.376-7.68-36.864 7.68-30.208 20.48-20.48 30.208-7.68 36.864 7.68 36.864 20.48 30.208 30.208 19.968 36.864 7.168zM930.816 685.056q28.672 0 44.544-7.68t22.528-18.944 6.144-24.064-3.584-22.016-13.312-37.888-22.016-62.976-23.552-68.096-18.944-53.248q-13.312-40.96-33.28-56.832t-49.664-15.872l-35.84 0-65.536 0-86.016 0-96.256 0-253.952 0 14.336-92.16 517.12 0q49.152 0 49.152-41.984 0-20.48-9.728-35.84t-38.4-14.336l-49.152 0-94.208 0-118.784 0-119.808 0-99.328 0-55.296 0q-20.48 0-34.304 9.216t-23.04 24.064-14.848 32.256-8.704 32.768q-1.024 6.144-5.632 29.696t-11.264 58.88-14.848 78.848-16.384 87.552q-19.456 103.424-44.032 230.4l-76.8 0q-15.36 0-25.6 7.68t-16.896 18.432-9.216 23.04-2.56 22.528q0 20.48 13.824 33.792t37.376 12.288l103.424 0q20.48 0 32.768-6.144t19.456-15.36 10.24-18.944 5.12-16.896q2.048-8.192 4.096-23.04t4.096-30.208q3.072-18.432 6.144-38.912l700.416 0zM892.928 593.9200000000001l-641.024 2.048 35.84-185.344 535.552-1.024z"  horiz-adv-x="1028" />

    
    <glyph glyph-name="gouwuchekong" unicode="&#58883;" d="M354.1333333333333 113.22199999999998q19.456 0 36.864-7.167999999999999t30.208-19.968 20.48-30.208 7.679999999999999-36.864-7.679999999999999-36.864-20.48-30.208-30.208-20.48-36.864-7.679999999999999q-20.48 0-37.888 7.679999999999999t-30.208 20.48-20.48 30.208-7.679999999999999 36.864 7.679999999999999 36.864 20.48 30.208 30.208 19.968 37.888 7.167999999999999zM780.1173333333334 111.17399999999998q19.456 0 37.376-7.167999999999999t30.719999999999995-19.968 20.48-30.208 7.679999999999999-36.864-7.679999999999999-36.864-20.48-30.208-30.719999999999995-20.48-37.376-7.679999999999999-36.864 7.679999999999999-30.208 20.48-20.48 30.208-7.679999999999999 36.864 7.679999999999999 36.864 20.48 30.208 30.208 19.968 36.864 7.167999999999999zM952.1493333333332 692.806q28.671999999999997 0 44.544-7.679999999999999t22.528-18.944 6.144-24.064-3.5839999999999996-22.016-13.311999999999998-37.888-22.016-62.97599999999999-23.552-68.096-18.944-53.24799999999999q-13.311999999999998-40.96-33.28-56.832t-49.664-15.871999999999998l-35.84 0-65.536 0-86.016 0-96.256 0-253.95199999999997 0 14.335999999999999-92.16 517.12 0q49.152 0 49.152-41.984 0-20.48-9.728-35.84t-38.4-14.335999999999999l-49.152 0-94.208 0-118.78399999999999 0-119.80800000000002 0-99.328 0-55.29599999999999 0q-20.48 0-34.304 9.216t-23.04 24.064-14.847999999999999 32.256-8.704 32.768q-1.024 6.144-5.632 29.695999999999998t-11.264 58.88-14.847999999999999 78.848-16.384 87.552q-19.456 103.42399999999999-44.032 230.39999999999998l-76.8 0q-15.359999999999998 0-25.6 7.679999999999999t-16.896 18.432-9.216 23.04-2.56 22.528q0 20.48 13.823999999999998 33.792t37.376 12.288l103.42399999999999 0q20.48 0 32.768-6.144t19.456-15.359999999999998 10.24-18.944 5.12-16.896q2.048-8.192 4.096-23.04t4.096-30.208q3.072-18.432 6.144-38.912l700.416 0zM914.2613333333335 601.67l-641.024 2.048 35.84-185.344 535.552-1.024z"  horiz-adv-x="1028" />

    
    <glyph glyph-name="mifenqia" unicode="&#58903;" d="M837.824-120H170.048s-34.24 24.768-56.128 60.736c-11.648 26.56-13.888 54.272-13.888 54.272V811.712l34.816 41.216 26.304 31.04h512.064l250.752-250.752V-28.8s0.192-27.264-20.032-63.232c-32-31.488-66.112-27.968-66.112-27.968z m-631.872 64h604.224l49.792 52.736V606.72l-213.248 213.248H190.848l-26.816-31.68v-775.296l41.92-68.992zM252.032 739.968h64v-216h-64zM364.736 739.968h64v-216h-64zM480 739.968h64v-216h-64zM256 299.968h164.032V416H284.032L256 384zM791.232 132.416l-175.552-0.832 0.64-116.032 136 0.768 27.776 32.128zM615.68 416v-116.032h180.352V382.016L752 416zM428.736 17.408l-1.856 116.032-180.288-2.88 1.344-81.92 44.48-33.344zM254.784 277.76h166.4v-107.52h-166.4zM456 416h128v-400.448h-128zM615.68 280h180.288v-112H615.68z"  horiz-adv-x="1024" />

    
    <glyph glyph-name="yijiuhuanxin" unicode="&#58904;" d="M531.072-110.016c-250.048 0-453.376 203.456-453.376 453.44H13.376l96.192 128.448 85.184-128.448h-56.64a393.472 393.472 0 0 1 392.96-392.96c174.336 0 321.664 100.352 372.288 267.072 0 0 22.656 39.168 44.608 22.464 22.336-17.024 17.088-41.984 17.088-41.984-58.432-192.32-232.896-308.032-433.984-308.032zM640.448 661.312H376l-48.192-80.448v-433.472l75.584-67.072h210.432l76.8 67.072V590.592l-50.176 70.72z m-93.76-513.92H478.976v19.968h67.712v-19.968z m67.136 95.488H403.392V475.072h210.432v-232.192z m0 327.744H403.392v19.968h210.432v-19.968zM523.584 838.656a453.952 453.952 0 0 0 453.44-453.44h64.256l-96.256-128.512-85.12 128.512h56.768a393.472 393.472 0 0 1-393.088 392.96c-174.336 0-320.96-98.24-371.648-264.896 0 0-11.968-27.328-41.92-15.36s-13.632 39.936-13.632 39.936c58.496 192.256 226.048 300.8 427.2 300.8z"  horiz-adv-x="1041" />

    
    <glyph glyph-name="huafeichongzhi" unicode="&#58932;" d="M898.624-47.552H86.144L0 73.664v592l100.288 109.888h814.656L1024 666.496v-596.48l-125.376-117.568zM62.976 466.432v-372.672l55.68-78.336h755.008l87.296 81.856V459.968m5.696 96.192l-5.632 84.224-72.128 72.128H128.128L62.976 641.216v-86.272M124.032 363.968h364.032v-64H124.032zM644.032 235.968h60.032v-64h-60.032zM124.032 235.968h364.032v-64H124.032zM764.032 235.968h64v-64h-64z"  horiz-adv-x="1024" />

    


  </font>
</defs>
</svg>
